<?xml version="1.0" encoding="UTF-8"?>
<!DOCTYPE svg PUBLIC "-//W3C//DTD SVG 1.1//EN" "http://www.w3.org/Graphics/SVG/1.1/DTD/svg11.dtd">
<svg xmlns="http://www.w3.org/2000/svg" version="1.1" width="512px" height="239px" style="shape-rendering:geometricPrecision; text-rendering:geometricPrecision; image-rendering:optimizeQuality; fill-rule:evenodd; clip-rule:evenodd" xmlns:xlink="http://www.w3.org/1999/xlink">
<g><path style="opacity:0.947" fill="#a9db1d" d="M 431.5,38.5 C 439.174,38.3336 446.841,38.5003 454.5,39C 458.424,39.2597 462.091,40.2597 465.5,42C 461.5,49.6667 457.5,57.3333 453.5,65C 452.271,65.7811 450.938,66.2811 449.5,66.5C 426.365,60.7211 406.032,65.7211 388.5,81.5C 386.183,78.6826 383.683,76.0159 381,73.5C 391.924,53.5977 408.758,41.931 431.5,38.5 Z"/></g>
<g><path style="opacity:0.948" fill="#a9db1d" d="M 227.5,50.5 C 245.547,50.2465 252.381,58.9131 248,76.5C 242.771,85.0213 235.271,87.8547 225.5,85C 216.062,80.3804 212.562,72.8804 215,62.5C 217.111,56.2195 221.278,52.2195 227.5,50.5 Z"/></g>
<g><path style="opacity:0.98" fill="#c0c0c0" d="M 33.5,59.5 C 54.1694,59.3334 74.836,59.5 95.5,60C 121.321,65.4705 132.488,81.3038 129,107.5C 127.312,117.502 122.145,125.002 113.5,130C 127.111,137.22 133.778,148.553 133.5,164C 132.139,186.703 120.139,200.036 97.5,204C 76.1693,204.5 54.8359,204.667 33.5,204.5C 33.5,156.167 33.5,107.833 33.5,59.5 Z M 64.5,89.5 C 73.5822,89.0863 82.5822,89.5863 91.5,91C 95.5728,93.4752 97.5728,97.1418 97.5,102C 97.952,107.66 95.6186,111.66 90.5,114C 81.8926,115.339 73.2259,115.839 64.5,115.5C 64.5,106.833 64.5,98.1667 64.5,89.5 Z M 64.5,145.5 C 74.2471,145.08 83.9138,145.58 93.5,147C 99.0513,149.553 101.718,153.886 101.5,160C 101.849,167.302 98.516,171.969 91.5,174C 82.5062,174.5 73.5062,174.666 64.5,174.5C 64.5,164.833 64.5,155.167 64.5,145.5 Z"/></g>
<g><path style="opacity:0.968" fill="#c0c0c0" d="M 418.5,76.5 C 447.434,73.3208 466.601,85.3208 476,112.5C 477.832,122.136 477.998,131.802 476.5,141.5C 452.5,141.5 428.5,141.5 404.5,141.5C 406.475,150.312 411.808,156.145 420.5,159C 424.431,159.996 428.431,160.496 432.5,160.5C 438.832,159.817 445.166,159.651 451.5,160C 453.5,161 455.5,162 457.5,163C 461.907,167.812 465.574,173.145 468.5,179C 460.755,183.356 452.421,186.023 443.5,187C 414.856,192.143 393.356,182.31 379,157.5C 368.806,130.459 373.972,106.959 394.5,87C 401.857,81.8327 409.857,78.3327 418.5,76.5 Z M 422.5,101.5 C 436.316,99.7187 444.982,105.385 448.5,118.5C 433.833,118.5 419.167,118.5 404.5,118.5C 407.272,109.394 413.272,103.728 422.5,101.5 Z"/></g>
<g><path style="opacity:0.953" fill="#c0c0c0" d="M 191.5,95.5 C 196.214,95.3531 200.881,95.6864 205.5,96.5C 205.832,107.187 205.499,117.854 204.5,128.5C 196.199,124.81 187.866,124.643 179.5,128C 176.567,130.264 174.4,133.098 173,136.5C 171.719,154.781 171.053,173.115 171,191.5C 168.807,197.693 164.641,201.859 158.5,204C 152.843,204.499 147.176,204.666 141.5,204.5C 141.5,168.833 141.5,133.167 141.5,97.5C 151.5,97.5 161.5,97.5 171.5,97.5C 171.335,100.85 171.502,104.183 172,107.5C 177.187,101.104 183.687,97.104 191.5,95.5 Z"/></g>
<g><path style="opacity:0.964" fill="#c0c0c0" d="M 216.5,97.5 C 226.5,97.5 236.5,97.5 246.5,97.5C 246.667,128.835 246.5,160.168 246,191.5C 244.311,196.525 241.144,200.359 236.5,203C 229.924,204.377 223.257,204.877 216.5,204.5C 216.5,168.833 216.5,133.167 216.5,97.5 Z"/></g>
<g><path style="opacity:0.963" fill="#c0c0c0" d="M 258.5,97.5 C 266.174,97.3336 273.841,97.5003 281.5,98C 285.722,99.0262 289.222,101.193 292,104.5C 299.612,124.725 306.945,145.059 314,165.5C 321.657,145.2 329.324,124.867 337,104.5C 339.778,101.193 343.278,99.0262 347.5,98C 355.159,97.5003 362.826,97.3336 370.5,97.5C 358.576,130.689 346.076,163.689 333,196.5C 327.443,203.859 320.109,206.526 311,204.5C 306.833,204.167 302.667,203.833 298.5,203.5C 284.963,168.221 271.63,132.887 258.5,97.5 Z"/></g>
</svg>
