<?xml version="1.0" standalone="no"?>
<!DOCTYPE svg PUBLIC "-//W3C//DTD SVG 20010904//EN"
 "http://www.w3.org/TR/2001/REC-SVG-20010904/DTD/svg10.dtd">
<svg version="1.0" xmlns="http://www.w3.org/2000/svg"
 width="300.000000pt" height="168.000000pt" viewBox="0 0 300.000000 168.000000"
 preserveAspectRatio="xMidYMid meet">

<g transform="translate(0.000000,168.000000) scale(0.100000,-0.100000)"
fill="#087efd" stroke="none">
<path d="M1806 1619 c-51 -66 -59 -82 -76 -172 -7 -32 -15 -57 -18 -55 -143
75 -164 81 -267 86 -86 4 -115 1 -174 -17 -229 -70 -377 -306 -341 -546 49
-329 412 -518 708 -369 87 43 141 90 191 165 63 94 85 178 79 302 -5 106 -20
158 -66 230 -13 22 -22 40 -20 42 2 2 36 11 76 19 60 12 86 25 143 67 39 28
67 55 62 60 -4 4 -48 9 -97 10 -81 3 -90 1 -97 -16 -4 -11 -41 -54 -83 -95
-42 -41 -76 -80 -76 -86 0 -6 14 -38 30 -70 86 -167 50 -357 -91 -489 -82 -75
-147 -99 -269 -99 -125 0 -188 24 -274 104 -184 173 -180 425 9 598 129 119
295 141 449 62 32 -16 64 -30 70 -30 6 0 45 34 86 76 41 42 84 79 96 84 19 8
20 14 16 97 -2 48 -7 91 -11 96 -4 4 -29 -20 -55 -54z"/>
<path d="M1361 1299 c-67 -13 -125 -46 -171 -95 -61 -67 -84 -124 -84 -214 -1
-125 56 -222 166 -281 56 -30 71 -33 143 -33 62 -1 91 5 131 22 64 29 136 102
165 167 28 63 30 160 6 232 -25 71 -38 80 -73 50 l-28 -24 17 -53 c23 -71 21
-115 -7 -175 -40 -87 -115 -135 -208 -135 -69 1 -125 27 -171 80 -60 71 -73
158 -36 240 52 114 163 163 284 124 l58 -18 24 29 25 28 -23 18 c-45 34 -149
52 -218 38z"/>
<path d="M1355 1111 c-49 -30 -68 -58 -73 -109 -8 -89 49 -152 137 -152 81 0
141 61 141 144 0 44 -17 53 -59 31 -22 -11 -31 -23 -31 -40 0 -34 -41 -61 -69
-45 -11 6 -25 20 -31 31 -16 28 11 69 45 69 27 0 61 50 51 76 -8 20 -75 18
-111 -5z"/>
<path d="M2310 333 c0 -75 0 -76 -20 -58 -27 25 -99 31 -137 11 -55 -28 -73
-61 -73 -134 0 -61 2 -66 39 -103 35 -36 43 -39 93 -39 32 0 62 6 74 15 25 19
34 19 34 0 0 -10 10 -15 30 -15 l30 0 0 200 0 200 -35 0 -35 0 0 -77z m-29
-122 c32 -33 36 -58 14 -100 -15 -31 -33 -41 -70 -41 -37 0 -55 10 -71 42 -20
38 -10 82 23 108 36 28 69 25 104 -9z"/>
<path d="M2444 396 c-12 -31 1 -51 32 -54 34 -3 49 16 39 49 -8 23 -63 26 -71
5z"/>
<path d="M2930 210 l0 -200 35 0 35 0 0 200 0 200 -35 0 -35 0 0 -200z"/>
<path d="M84 286 c-91 -40 -107 -176 -29 -245 31 -27 43 -31 95 -31 52 0 64 4
95 31 79 69 63 199 -29 243 -41 19 -90 20 -132 2z m118 -76 c26 -27 30 -36 25
-68 -12 -71 -94 -99 -136 -46 -45 58 -9 141 62 143 10 1 32 -13 49 -29z"/>
<path d="M414 290 c-56 -22 -93 -104 -79 -177 18 -95 155 -142 238 -80 17 12
16 14 -8 37 -19 18 -28 21 -37 12 -21 -21 -77 -14 -103 13 -65 64 4 168 89
135 23 -9 32 -7 47 6 26 23 24 31 -11 49 -31 16 -102 19 -136 5z"/>
<path d="M683 286 c-48 -22 -73 -69 -73 -138 0 -50 4 -62 31 -93 51 -58 148
-69 202 -24 l22 19 -23 20 c-18 15 -28 17 -42 10 -73 -39 -153 34 -118 106 20
43 60 62 100 46 29 -11 35 -10 52 8 19 19 19 21 4 37 -23 22 -114 28 -155 9z"/>
<path d="M990 283 c-17 -12 -25 -13 -28 -5 -2 7 -17 12 -33 12 l-29 0 0 -141
0 -140 32 3 32 3 -3 61 c-5 119 34 184 90 153 29 -15 39 -51 39 -140 l0 -79
30 0 30 0 0 74 c0 111 17 146 72 146 39 0 48 -25 48 -129 l0 -91 35 0 35 0 0
95 c0 118 -15 160 -64 180 -50 21 -78 19 -120 -10 -20 -13 -36 -20 -36 -15 0
13 -55 40 -82 40 -13 0 -34 -8 -48 -17z"/>
<path d="M1847 280 c-31 -17 -37 -17 -37 -5 0 10 -10 15 -30 15 l-30 0 0 -140
0 -140 29 0 29 0 4 91 c3 86 5 92 32 116 21 18 35 23 55 18 48 -12 56 -29 59
-131 l4 -95 31 3 32 3 -1 95 c-1 112 -17 154 -69 176 -46 19 -63 18 -108 -6z"/>
<path d="M2633 280 c-49 -29 -68 -65 -68 -130 0 -62 18 -98 61 -127 34 -22
114 -22 147 0 22 14 26 14 31 2 3 -9 18 -15 36 -15 l30 0 0 140 0 140 -35 0
c-25 0 -35 -4 -35 -16 0 -13 -5 -12 -26 5 -34 27 -98 27 -141 1z m142 -65 c55
-54 16 -147 -60 -147 -85 0 -115 106 -46 159 27 21 79 15 106 -12z"/>
<path d="M1402 192 c5 -107 22 -152 65 -171 34 -16 96 -14 119 4 25 19 34 19
34 0 0 -10 10 -15 30 -15 l30 0 0 140 0 140 -30 0 -30 0 0 -69 c0 -110 -23
-151 -84 -151 -46 0 -66 41 -66 136 l0 84 -36 0 -37 0 5 -98z"/>
<path d="M2442 153 l3 -138 33 -3 32 -3 0 140 0 141 -35 0 -36 0 3 -137z"/>
</g>
</svg>
